# xmcd CD database file
#
# Track frame offsets:
#	151
#	20024
#	38765
#	68157
#	106640
#	134394
#	167858
#	190431
#
# Disc length: 2853 seconds
#
# Revision: 0
# Processed by: cddbd v1.5.1PL0 Copyright (c) Steve Scherf et al.
# Submitted via: CDex 1.51
#
DISCID=690b2308
DTITLE=All-State Music Festival - All-State Music Festival 2000 [CD1]
DYEAR=2000
DGENRE=Jazz
TTITLE0=No More Mr. Nice Guy
TTITLE1=Well You Needn't
TTITLE2=Work Song
TTITLE3=C Jam Blues
TTITLE4=Stolen Moments
TTITLE5=So What
TTITLE6=Take the A Train
TTITLE7=Oliver
EXTD=YEAR: 2000
EXTT0=
EXTT1=
EXTT2=
EXTT3=
EXTT4=
EXTT5=
EXTT6=
EXTT7=
PLAYORDER=
